HIERARCHY
ROOT Hips
{
	OFFSET 0.000000 0.000000 0.000000
	CHANNELS 6 Xposition Yposition Zposition Xrotation Yrotation Zrotation
	JOINT LeftUpLeg_virtual
	{
		OFFSET 0.000000 0.000000 0.000000
		CHANNELS 3 Xrotation Yrotation Zrotation
		JOINT LeftUpLeg
		{
			OFFSET 10.205400 -3.823500 0.155100
			CHANNELS 3 Xrotation Yrotation Zrotation
			JOINT LeftLeg
			{
				OFFSET 0.708757 -12.982077 0.567790
				CHANNELS 3 Xrotation Yrotation Zrotation
				JOINT LeftFoot
				{
					OFFSET -0.708756 -10.717838 -2.184338
					CHANNELS 3 Xrotation Yrotation Zrotation
					JOINT LeftToeBase
					{
						OFFSET 0.108149 -7.191104 7.560241
						CHANNELS 3 Xrotation Yrotation Zrotation
						JOINT LeftToe_End
						{
							OFFSET 0.070230 0.081724 4.490308
							CHANNELS 3 Xrotation Yrotation Zrotation
							End Site
							{
								OFFSET 0 0 0
							}
						}
					}
				}
			}
		}
	}
	JOINT RightUpLeg_virtual
	{
		OFFSET 0.000000 0.000000 0.000000
		CHANNELS 3 Xrotation Yrotation Zrotation
		JOINT RightUpLeg
		{
			OFFSET -10.205400 -3.823500 0.005500
			CHANNELS 3 Xrotation Yrotation Zrotation
			JOINT RightLeg
			{
				OFFSET -0.708756 -12.982134 0.610632
				CHANNELS 3 Xrotation Yrotation Zrotation
				JOINT RightFoot
				{
					OFFSET 0.708754 -10.717769 -1.945823
					CHANNELS 3 Xrotation Yrotation Zrotation
					JOINT RightToeBase
					{
						OFFSET -0.108140 -7.191069 7.372968
						CHANNELS 3 Xrotation Yrotation Zrotation
						JOINT RightToe_End
						{
							OFFSET -0.070227 0.081735 4.479403
							CHANNELS 3 Xrotation Yrotation Zrotation
							End Site
							{
								OFFSET 0 0 0
							}
						}
					}
				}
			}
		}
	}
	JOINT Spine_virtual
	{
		OFFSET 0.000000 0.000000 0.000000
		CHANNELS 3 Xrotation Yrotation Zrotation
		JOINT Spine
		{
			OFFSET 0.000000 6.876099 0.125700
			CHANNELS 3 Xrotation Yrotation Zrotation
			JOINT Spine1
			{
				OFFSET 0.000000 5.730043 0.104720
				CHANNELS 3 Xrotation Yrotation Zrotation
				JOINT Spine1_split
				{
					OFFSET 0.000000 5.730043 0.104720
					CHANNELS 3 Xrotation Yrotation Zrotation
					JOINT Spine2
					{
						OFFSET 0.000000 5.730043 0.104720
						CHANNELS 3 Xrotation Yrotation Zrotation
						JOINT Neck_virtual
						{
							OFFSET 0.000000 0.000000 0.000000
							CHANNELS 3 Xrotation Yrotation Zrotation
							JOINT Neck
							{
								OFFSET 0.000000 10.314075 0.188496
								CHANNELS 3 Xrotation Yrotation Zrotation
								JOINT Head
								{
									OFFSET 0.000000 7.643700 -2.377400
									CHANNELS 3 Xrotation Yrotation Zrotation
									JOINT HeadTop_End
									{
										OFFSET 0.000000 43.788605 -13.619600
										CHANNELS 3 Xrotation Yrotation Zrotation
										End Site
										{
											OFFSET 0 0 0
										}
									}
								}
							}
						}
						JOINT LeftShoulder_virtual
						{
							OFFSET 0.000000 0.000000 0.000000
							CHANNELS 3 Xrotation Yrotation Zrotation
							JOINT LeftShoulder
							{
								OFFSET 2.196100 4.412489 0.087492
								CHANNELS 3 Xrotation Yrotation Zrotation
								JOINT LeftShoulder_split
								{
									OFFSET 2.196100 4.412489 0.087492
									CHANNELS 3 Xrotation Yrotation Zrotation
									JOINT LeftArm
									{
										OFFSET 8.771219 -2.981674 -0.026999
										CHANNELS 3 Xrotation Yrotation Zrotation
										JOINT LeftForeArm
										{
											OFFSET 8.512804 0.000000 -0.000000
											CHANNELS 3 Xrotation Yrotation Zrotation
											JOINT LeftHand
											{
												OFFSET 18.484802 0.000000 -0.000000
												CHANNELS 3 Xrotation Yrotation Zrotation
												End Site
												{
													OFFSET 0 0 0
												}
											}
										}
									}
								}
							}
						}
						JOINT RightShoulder_virtual
						{
							OFFSET 0.000000 0.000000 0.000000
							CHANNELS 3 Xrotation Yrotation Zrotation
							JOINT RightShoulder
							{
								OFFSET -2.196100 4.412496 0.070690
								CHANNELS 3 Xrotation Yrotation Zrotation
								JOINT RightShoulder_split
								{
									OFFSET -2.196100 4.412496 0.070690
									CHANNELS 3 Xrotation Yrotation Zrotation
									JOINT RightArm
									{
										OFFSET -8.771282 -2.981682 -0.094208
										CHANNELS 3 Xrotation Yrotation Zrotation
										JOINT RightForeArm
										{
											OFFSET -8.494598 0.000000 0.000000
											CHANNELS 3 Xrotation Yrotation Zrotation
											JOINT RightHand
											{
												OFFSET -18.483803 0.000000 0.000001
												CHANNELS 3 Xrotation Yrotation Zrotation
												End Site
												{
													OFFSET 0 0 0
												}
											}
										}
									}
								}
							}
						}
					}
				}
			}
		}
	}
}
MOTION
Frames: 12
Frame Time: 0.03333333
0.063522 32.879623 -0.326475 0.000000 0.000000 0.000000 0.659810 0.408114 0.396001 -10.192783 -2.769395 15.129175 23.219139 -2.092580 -4.137420 -14.608337 13.878916 -7.820093 1.472714 0.071304 -1.168894 0.000000 0.000000 0.000000 1.383149 -1.102472 0.514583 -5.405259 -2.265450 -15.554050 20.633530 4.612552 1.199538 -13.851489 -13.842880 12.635541 -2.054377 0.577660 0.798453 0.000000 0.000000 0.000000 1.837506 -1.265462 0.206816 3.281518 0.124925 1.161521 3.351611 0.102655 0.287958 0.728717 0.029660 0.209128 0.000000 0.000000 0.000000 2.724794 0.164174 0.153037 -2.949217 -0.319729 0.289443 -0.387607 -0.667387 1.151499 0.000000 0.000000 0.000000 2.592669 0.217441 0.275587 1.255934 9.759832 -13.219537 -0.562473 -2.204229 -0.611606 12.442025 -5.780427 -52.676092 -0.309522 -32.205025 0.836578 0.000000 0.000000 0.000000 2.651105 0.108217 0.352510 1.699286 -9.469486 11.590695 1.284826 2.004703 -1.857945 1.441314 18.010942 63.237894 2.065311 25.001614 0.276108 0.000000 0.000000 0.000000 
0.215357 32.832195 -0.504013 0.000000 0.000000 0.000000 0.751144 0.010399 0.502726 -10.561609 -2.783970 14.749787 23.228799 -2.041697 -4.259349 -14.946739 13.410463 -8.026537 1.266966 0.064779 -1.099576 0.000000 0.000000 0.000000 1.398596 -1.217009 0.645878 -5.651173 -2.532256 -16.011594 20.640669 4.421248 1.279646 -14.038679 -13.788316 12.540152 -2.153141 0.524468 0.780582 0.000000 0.000000 0.000000 1.880528 -1.481581 0.288958 3.335740 0.096461 1.152603 3.370401 0.057666 0.270155 0.928035 -0.232447 0.152996 0.000000 0.000000 0.000000 2.753199 0.151615 0.130091 -2.942732 -0.205678 0.177852 -0.247988 -0.580609 1.077686 0.000000 0.000000 0.000000 2.654023 0.174846 0.259158 1.241425 9.555821 -13.154279 -0.585275 -2.005770 -0.564263 12.260724 -6.254818 -52.899774 -0.299733 -32.378471 0.864556 0.000000 0.000000 0.000000 2.680819 0.072745 0.366774 1.723480 -9.296080 11.640749 1.335676 2.000314 -1.954202 1.337356 18.010504 63.133248 2.083138 24.809585 0.317514 0.000000 0.000000 0.000000 
0.477835 32.747044 -0.657064 0.000000 0.000000 0.000000 0.780042 -0.474495 0.603500 -11.465880 -2.764948 14.282908 24.166456 -2.350953 -4.423776 -15.207814 12.221438 -8.442166 1.015095 0.024544 -0.863559 0.000000 0.000000 0.000000 1.356513 -1.470823 0.799821 -5.851832 -2.593804 -16.768803 20.691283 4.362432 1.349970 -14.203266 -13.712013 12.859356 -2.127985 0.553511 0.607193 0.000000 0.000000 0.000000 1.981361 -1.758496 0.411175 3.444986 -0.017328 1.089827 3.315211 -0.003548 0.238506 1.026096 -0.298481 0.082273 0.000000 0.000000 0.000000 2.715428 0.105759 0.098192 -2.903161 -0.043428 0.043019 -0.096830 -0.500794 1.086249 0.000000 0.000000 0.000000 2.639052 0.116043 0.236940 1.222709 9.107552 -13.098166 -0.519701 -1.752868 -0.454702 11.998216 -7.042241 -53.214704 -0.242162 -32.412909 0.864476 0.000000 0.000000 0.000000 2.663536 0.007064 0.370406 1.749396 -8.813732 11.934638 1.289385 1.938747 -2.120487 1.141228 18.052760 62.760218 2.043235 24.206112 0.354543 0.000000 0.000000 0.000000 
0.819933 32.636818 -0.721874 0.000000 0.000000 0.000000 0.825104 -0.948686 0.701203 -12.715345 -2.747860 13.804856 25.746084 -2.788474 -4.572649 -15.513153 10.569493 -8.720129 0.992517 -0.038609 -0.548154 0.000000 0.000000 0.000000 1.379234 -1.760817 0.925287 -5.959606 -2.504263 -17.714196 20.710809 4.420352 1.455964 -14.290428 -13.593215 13.475091 -1.984982 0.662962 0.284000 0.000000 0.000000 0.000000 2.134217 -2.044584 0.543385 3.584797 -0.205902 0.992371 3.189717 -0.070694 0.200476 0.930149 -0.233088 0.071823 0.000000 0.000000 0.000000 2.629839 0.034207 0.067170 -2.822318 0.140119 -0.091167 0.033644 -0.466505 1.195430 0.000000 0.000000 0.000000 2.550082 0.051297 0.218298 1.200136 8.484402 -13.031029 -0.494906 -1.412863 -0.356521 11.687640 -8.001740 -53.599387 -0.148052 -32.297465 0.836381 0.000000 0.000000 0.000000 2.593107 -0.081835 0.358969 1.770277 -8.071229 12.377817 1.171806 1.860328 -2.328614 0.841283 18.101989 62.191953 1.955861 23.373044 0.389574 0.000000 0.000000 0.000000 
1.198173 32.522858 -0.726496 0.000000 0.000000 0.000000 0.906023 -1.388703 0.790854 -14.053776 -2.751830 13.304732 27.519761 -3.079537 -4.655478 -16.028169 8.798784 -8.526981 1.184552 -0.097406 -0.222935 0.000000 0.000000 0.000000 1.518099 -2.123569 0.998209 -6.018788 -2.371930 -18.718330 20.652055 4.465268 1.648065 -14.308269 -13.507800 14.231368 -1.828297 0.830206 -0.101919 0.000000 0.000000 0.000000 2.330355 -2.313314 0.660708 3.743649 -0.453423 0.879083 3.022421 -0.141502 0.164469 0.854052 -0.142156 0.069245 0.000000 0.000000 0.000000 2.505584 -0.053551 0.049922 -2.701442 0.304834 -0.206039 0.107376 -0.506140 1.407526 0.000000 0.000000 0.000000 2.409442 -0.016498 0.211405 1.172566 7.773011 -12.947967 -0.570825 -1.080805 -0.363570 11.351755 -9.034011 -54.033493 -0.051917 -32.113808 0.782965 0.000000 0.000000 0.000000 2.471424 -0.186103 0.333086 1.775507 -7.133720 12.862123 1.085836 1.771853 -2.505968 0.486113 18.135790 61.511768 1.835490 22.464701 0.416033 0.000000 0.000000 0.000000 
1.563625 32.437866 -0.667732 0.000000 0.000000 0.000000 1.065954 -1.768121 0.862160 -15.122758 -2.750550 12.753053 29.034557 -3.072193 -4.625616 -16.882266 7.202298 -7.752912 1.400714 -0.132114 0.072846 0.000000 0.000000 0.000000 1.725481 -2.398016 1.022248 -6.192208 -2.245957 -19.713637 20.653088 4.429947 1.913129 -14.261715 -13.500831 15.041350 -2.029210 1.003483 -0.476398 0.000000 0.000000 0.000000 2.527641 -2.458702 0.733546 3.916100 -0.739089 0.760559 2.842266 -0.217524 0.136182 0.812844 0.052520 0.085530 0.000000 0.000000 0.000000 2.358553 -0.152198 0.050018 -2.552183 0.430838 -0.282318 0.112804 -0.627336 1.724490 0.000000 0.000000 0.000000 2.240759 -0.082249 0.214546 1.140415 7.051585 -12.842701 -0.699074 -0.830891 -0.411096 11.003591 -10.031647 -54.500446 0.038648 -31.937118 0.714705 0.000000 0.000000 0.000000 2.307426 -0.296376 0.294640 1.766382 -6.094650 13.309159 1.038168 1.663343 -2.628568 0.150172 18.146252 60.780897 1.716543 21.537202 0.427914 0.000000 0.000000 0.000000 
1.886266 32.390766 -0.566996 0.000000 0.000000 0.000000 1.288395 -2.145619 0.907991 -15.777763 -2.701161 12.106346 30.100548 -2.792448 -4.474442 -17.941746 5.877623 -6.629768 1.454941 -0.144050 0.319126 0.000000 0.000000 0.000000 1.982285 -2.577134 1.018397 -6.559222 -2.123139 -20.704542 21.046045 4.361438 2.252060 -14.103540 -13.481497 15.819507 -3.023386 1.153320 -0.765257 0.000000 0.000000 0.000000 2.682636 -2.412375 0.752941 4.130541 -1.045244 0.643847 2.674654 -0.295077 0.118852 0.840632 0.237239 0.107936 0.000000 0.000000 0.000000 2.197945 -0.253605 0.065731 -2.402507 0.515612 -0.308585 0.085021 -0.819206 2.125574 0.000000 0.000000 0.000000 2.070438 -0.143965 0.221343 1.105846 6.364874 -12.698110 -0.824252 -0.704364 -0.464870 10.675035 -10.904241 -55.007403 0.110704 -31.808444 0.635309 0.000000 0.000000 0.000000 2.121706 -0.401432 0.253165 1.747805 -5.025543 13.698539 0.992542 1.519839 -2.687783 -0.133738 18.113093 60.041037 1.620760 20.619458 0.423856 0.000000 0.000000 0.000000 
2.166981 32.386852 -0.473799 0.000000 0.000000 0.000000 1.473141 -2.485023 0.913475 -16.075941 -2.597043 11.412171 30.820600 -2.370110 -4.235640 -18.882913 4.846360 -5.507159 1.278330 -0.139435 0.480138 0.000000 0.000000 0.000000 2.189124 -2.636253 1.012296 -7.171576 -1.983135 -21.620195 22.163844 4.235750 2.629724 -13.840000 -13.413788 16.466987 -4.882303 1.247016 -0.854768 0.000000 0.000000 0.000000 2.768234 -2.267020 0.718597 4.416571 -1.352022 0.542478 2.531146 -0.368838 0.114900 0.927116 0.376288 0.123774 0.000000 0.000000 0.000000 2.022543 -0.348912 0.089586 -2.270178 0.544222 -0.272494 0.074066 -1.054484 2.575113 0.000000 0.000000 0.000000 1.910438 -0.202403 0.226905 1.067504 5.747240 -12.511998 -0.931790 -0.702513 -0.467284 10.373871 -11.651999 -55.569794 0.175455 -31.736331 0.555089 0.000000 0.000000 0.000000 1.944329 -0.487458 0.217490 1.719986 -3.993098 14.043163 0.966662 1.403723 -2.658009 -0.371737 18.031397 59.329557 1.563943 19.784959 0.397105 0.000000 0.000000 0.000000 
2.427043 32.413494 -0.384602 0.000000 0.000000 0.000000 1.605303 -2.722722 0.853013 -16.095658 -2.417417 10.729664 31.314396 -1.923085 -3.959068 -19.640550 4.136241 -4.619913 1.117039 -0.140096 0.492262 0.000000 0.000000 0.000000 2.311552 -2.602875 0.982535 -8.104039 -1.722373 -22.439933 24.326450 4.011902 2.945599 -13.544748 -13.343244 16.764679 -7.345857 1.261216 -0.714716 0.000000 0.000000 0.000000 2.805969 -2.109419 0.622556 4.770964 -1.638065 0.470096 2.407424 -0.445039 0.122847 0.947259 0.503571 0.130408 0.000000 0.000000 0.000000 1.846686 -0.430948 0.111323 -2.167953 0.510797 -0.164813 0.111935 -1.280487 3.029775 0.000000 0.000000 0.000000 1.770330 -0.255191 0.232970 1.022466 5.208774 -12.274599 -1.022358 -0.773359 -0.433463 10.055939 -12.292441 -56.184672 0.234777 -31.714064 0.483199 0.000000 0.000000 0.000000 1.791337 -0.555241 0.192054 1.684765 -3.056949 14.373944 0.917874 1.336854 -2.568242 -0.551295 17.911003 58.650001 1.557592 19.079676 0.349071 0.000000 0.000000 0.000000 
2.686834 32.449688 -0.269493 0.000000 0.000000 0.000000 1.713948 -2.851344 0.724330 -15.876879 -2.126370 10.129499 31.568270 -1.523979 -3.735573 -20.298113 3.729422 -4.153645 1.070784 -0.141547 0.392633 0.000000 0.000000 0.000000 2.344612 -2.566806 0.888365 -9.327346 -1.263089 -23.157377 27.541370 3.730822 3.092573 -13.243173 -13.277290 16.735630 -10.118357 1.166368 -0.384131 0.000000 0.000000 0.000000 2.811926 -2.064796 0.463520 5.196317 -1.906764 0.432985 2.288721 -0.526367 0.137133 0.984492 0.558319 0.143629 0.000000 0.000000 0.000000 1.686127 -0.502220 0.123870 -2.087343 0.425767 0.010987 0.215789 -1.450060 3.457328 0.000000 0.000000 0.000000 1.656355 -0.303646 0.243507 0.970689 4.722138 -11.991818 -1.110456 -0.901559 -0.435759 9.634748 -12.857309 -56.843215 0.256290 -31.728855 0.423428 0.000000 0.000000 0.000000 1.671448 -0.610013 0.176837 1.635809 -2.241794 14.710163 0.821223 1.361889 -2.464135 -0.673985 17.754686 57.999446 1.591195 18.498638 0.296507 0.000000 0.000000 0.000000 
2.960875 32.482460 -0.088799 0.000000 0.000000 0.000000 1.818479 -3.026092 0.549624 -15.321456 -1.749386 9.666995 31.536660 -1.188235 -3.664898 -21.036901 3.620653 -4.074886 0.999975 -0.130647 0.291737 0.000000 0.000000 0.000000 2.362761 -2.573694 0.713060 -10.931326 -0.541490 -23.774236 31.751685 3.542421 2.925060 -12.733021 -13.204699 16.654767 -12.943962 0.945812 0.051594 0.000000 0.000000 0.000000 2.831848 -2.273009 0.301178 5.661662 -2.147743 0.423250 2.167363 -0.617274 0.152839 1.009140 0.536365 0.205384 0.000000 0.000000 0.000000 1.546459 -0.564790 0.120812 -2.004914 0.317896 0.228451 0.401473 -1.497442 3.812041 0.000000 0.000000 0.000000 1.563319 -0.352461 0.251000 0.920488 4.266351 -11.688362 -1.150258 -1.067758 -0.470380 9.044985 -13.336635 -57.506293 0.227612 -31.772155 0.363837 0.000000 0.000000 0.000000 1.582297 -0.657419 0.163219 1.580158 -1.574360 15.077760 0.632746 1.509307 -2.391182 -0.740739 17.582804 57.374900 1.662789 18.003745 0.251142 0.000000 0.000000 0.000000 
3.246386 32.498520 0.147375 0.000000 0.000000 0.000000 1.940555 -3.501001 0.395118 -14.303973 -1.286193 9.271694 31.245161 -0.836831 -3.775909 -22.161761 3.775355 -4.019675 0.930432 -0.121157 0.194525 0.000000 0.000000 0.000000 2.387167 -2.802643 0.525214 -13.136867 0.398102 -24.323267 36.696551 3.478355 2.437347 -11.698222 -12.990400 16.750428 -15.450709 0.630469 0.539312 0.000000 0.000000 0.000000 2.890562 -2.789388 0.185063 6.148262 -2.360346 0.426766 2.051369 -0.718732 0.165119 0.991836 0.430873 0.240733 0.000000 0.000000 0.000000 1.424292 -0.620146 0.097367 -1.901287 0.206871 0.451387 0.674140 -1.358224 4.056586 0.000000 0.000000 0.000000 1.496259 -0.406539 0.246123 0.876018 3.808908 -11.380423 -1.174610 -1.225962 -0.582406 8.323308 -13.666969 -58.108517 0.137617 -31.863461 0.294220 0.000000 0.000000 0.000000 1.522525 -0.698462 0.147150 1.521527 -1.062729 15.491453 0.380081 1.766713 -2.363688 -0.748577 17.430986 56.764500 1.764541 17.556050 0.217200 0.000000 0.000000 0.000000 
